<?xml version="1.0" encoding="UTF-8" standalone="no"?>
<!DOCTYPE svg PUBLIC "-//W3C//DTD SVG 1.1//EN" "http://www.w3.org/Graphics/SVG/1.1/DTD/svg11.dtd">
<svg width="100%" height="100%" viewBox="0 0 490 490" version="1.1" xmlns="http://www.w3.org/2000/svg" xmlns:xlink="http://www.w3.org/1999/xlink" xml:space="preserve" xmlns:serif="http://www.serif.com/" style="fill-rule:evenodd;clip-rule:evenodd;stroke-linejoin:round;stroke-miterlimit:1.41421;">
    <g transform="matrix(1.08575,0,0,1.049,-27,-8)">
        <rect x="0" y="0" width="489.8" height="489.8"/>
    </g>
    <g>
        <path d="M438.2,0L51.6,0C23.1,0 0,23.2 0,51.6L0,438.2C0,466.7 23.2,489.8 51.6,489.8L438.2,489.8C466.7,489.8 489.8,466.6 489.8,438.2L489.8,51.6C489.8,23.2 466.6,0 438.2,0ZM465.3,438.2C465.3,453.1 453.1,465.3 438.2,465.3L51.6,465.3C36.7,465.3 24.5,453.1 24.5,438.2L24.5,51.6C24.5,36.7 36.7,24.5 51.6,24.5L438.2,24.5C453.1,24.5 465.3,36.7 465.3,51.6L465.3,438.2Z" style="fill:rgb(235,235,235);fill-rule:nonzero;"/>
        <path d="M319,170.8C314.2,166 306.5,166 301.7,170.8L244.9,227.6L188.1,170.8C183.3,166 175.6,166 170.8,170.8C166,175.6 166,183.3 170.8,188.1L227.6,244.9L170.8,301.7C166,306.5 166,314.2 170.8,319C173.2,321.4 176.3,322.6 179.5,322.6C182.7,322.6 185.8,321.4 188.2,319L245,262.2L301.8,319C304.2,321.4 307.3,322.6 310.5,322.6C313.7,322.6 316.8,321.4 319.2,319C324,314.2 324,306.5 319.2,301.7L262.2,244.9L319,188.1C323.8,183.3 323.8,175.6 319,170.8Z" style="fill:rgb(235,235,235);fill-rule:nonzero;"/>
    </g>
</svg>
