<?xml version="1.0" encoding="utf-8"?>
<!-- Generator: Adobe Illustrator 22.1.0, SVG Export Plug-In . SVG Version: 6.00 Build 0)  -->
<svg version="1.1" id="Capa_1" xmlns="http://www.w3.org/2000/svg" xmlns:xlink="http://www.w3.org/1999/xlink" x="0px" y="0px"
	 viewBox="0 0 489.8 489.8" style="enable-background:new 0 0 489.8 489.8;" xml:space="preserve">
<style type="text/css">
	.st0{fill:#FFFFFF;}
</style>
<g>
	<g>
		<path d="M438.2,0H51.6C23.1,0,0,23.2,0,51.6v386.6c0,28.5,23.2,51.6,51.6,51.6h386.6c28.5,0,51.6-23.2,51.6-51.6V51.6
			C489.8,23.2,466.6,0,438.2,0z M465.3,438.2c0,14.9-12.2,27.1-27.1,27.1H51.6c-14.9,0-27.1-12.2-27.1-27.1V51.6
			c0-14.9,12.2-27.1,27.1-27.1h386.6c14.9,0,27.1,12.2,27.1,27.1V438.2z"/>
		<path class="st0" d="M438.2,24.5H51.6c-14.9,0-27.1,12.2-27.1,27.1v386.6c0,14.9,12.2,27.1,27.1,27.1h386.6
			c14.9,0,27.1-12.2,27.1-27.1V51.6C465.3,36.7,453.1,24.5,438.2,24.5z M319.2,319c-2.4,2.4-5.5,3.6-8.7,3.6s-6.3-1.2-8.7-3.6
			L245,262.2L188.2,319c-2.4,2.4-5.5,3.6-8.7,3.6s-6.3-1.2-8.7-3.6c-4.8-4.8-4.8-12.5,0-17.3l56.8-56.8l-56.8-56.8
			c-4.8-4.8-4.8-12.5,0-17.3s12.5-4.8,17.3,0l56.8,56.8l56.8-56.8c4.8-4.8,12.5-4.8,17.3,0s4.8,12.5,0,17.3l-56.8,56.8l57,56.8
			C324,306.5,324,314.2,319.2,319z"/>
		<path d="M319.2,319c-2.4,2.4-5.5,3.6-8.7,3.6s-6.3-1.2-8.7-3.6L245,262.2L188.2,319c-2.4,2.4-5.5,3.6-8.7,3.6s-6.3-1.2-8.7-3.6
			c-4.8-4.8-4.8-12.5,0-17.3l56.8-56.8l-56.8-56.8c-4.8-4.8-4.8-12.5,0-17.3s12.5-4.8,17.3,0l56.8,56.8l56.8-56.8
			c4.8-4.8,12.5-4.8,17.3,0s4.8,12.5,0,17.3l-56.8,56.8l57,56.8C324,306.5,324,314.2,319.2,319z"/>
	</g>
</g>
</svg>
