<?xml version="1.0" encoding="utf-8"?>
<!-- Generator: Adobe Illustrator 22.1.0, SVG Export Plug-In . SVG Version: 6.00 Build 0)  -->
<svg version="1.1" id="Capa_1" xmlns="http://www.w3.org/2000/svg" xmlns:xlink="http://www.w3.org/1999/xlink" x="0px" y="0px"
	 viewBox="0 0 60 60" style="enable-background:new 0 0 60 60;" xml:space="preserve">
<style type="text/css">
	.st0{fill:#FFFFFF;}
</style>
<g>
	<path d="M39,22c0-5-4-9-9-9s-9,4-9,9c0,2.8,1.3,5.4,3.5,7.1L21.8,48h16.3l-2.7-18.9C37.7,27.4,39,24.8,39,22z M35.8,46H24.2
		l2.5-17.8l-0.5-0.3c-2-1.3-3.2-3.5-3.2-5.8c0-3.9,3.1-7,7-7s7,3.1,7,7c0,2.4-1.2,4.5-3.2,5.8l-0.5,0.3L35.8,46z"/>
	<path d="M30,0C13.5,0,0,13.5,0,30s13.5,30,30,30s30-13.5,30-30S46.5,0,30,0z M30,58C14.6,58,2,45.4,2,30S14.6,2,30,2s28,12.6,28,28
		S45.4,58,30,58z"/>
	<path class="st0" d="M30,2C14.6,2,2,14.6,2,30s12.6,28,28,28s28-12.6,28-28S45.4,2,30,2z M38.2,48H21.8l2.7-18.9
		C22.3,27.4,21,24.8,21,22c0-5,4-9,9-9s9,4,9,9c0,2.8-1.3,5.4-3.5,7.1L38.2,48z"/>
	<path class="st0" d="M33.3,28.2L35.8,46H24.2l2.5-17.8l-0.5-0.3c-2-1.3-3.2-3.5-3.2-5.8c0-3.9,3.1-7,7-7s7,3.1,7,7
		c0,2.4-1.2,4.5-3.2,5.8L33.3,28.2z"/>
</g>
</svg>
