<?xml version="1.0" encoding="UTF-8" standalone="no"?>
<!DOCTYPE svg PUBLIC "-//W3C//DTD SVG 1.1//EN" "http://www.w3.org/Graphics/SVG/1.1/DTD/svg11.dtd">
<svg width="100%" height="100%" viewBox="0 0 512 512" version="1.1" xmlns="http://www.w3.org/2000/svg" xmlns:xlink="http://www.w3.org/1999/xlink" xml:space="preserve" xmlns:serif="http://www.serif.com/" style="fill-rule:evenodd;clip-rule:evenodd;stroke-linejoin:round;stroke-miterlimit:1.41421;">
    <g transform="matrix(0.988417,0,0,0.990329,5.9305,4.95164)">
        <rect x="-6" y="-5" width="518" height="517"/>
    </g>
    <path d="M416.667,0L95.333,0C42.766,0 0,42.767 0,95.334L0,416.666C0,469.233 42.766,512 95.333,512L416.667,512C469.234,512 512,469.233 512,416.666L512,95.334C512,42.767 469.234,0 416.667,0ZM482,416.666C482,452.691 452.692,482 416.667,482L95.333,482C59.308,482 30,452.691 30,416.666L30,95.334C30,59.309 59.308,30 95.333,30L416.667,30C452.692,30 482,59.309 482,95.334L482,416.666Z" style="fill:rgb(235,235,235);fill-rule:nonzero;"/>
    <path d="M400.6,120.5L111.4,120.5C103.116,120.5 96.4,127.216 96.4,135.5C96.4,143.784 103.116,150.5 111.4,150.5L400.6,150.5C408.884,150.5 415.6,143.784 415.6,135.5C415.6,127.216 408.884,120.5 400.6,120.5Z" style="fill:rgb(235,235,235);fill-rule:nonzero;"/>
    <path d="M400.6,241L111.4,241C103.116,241 96.4,247.716 96.4,256C96.4,264.284 103.116,271 111.4,271L400.6,271C408.884,271 415.6,264.284 415.6,256C415.6,247.716 408.884,241 400.6,241Z" style="fill:rgb(235,235,235);fill-rule:nonzero;"/>
    <path d="M400.6,361.5L111.4,361.5C103.116,361.5 96.4,368.216 96.4,376.5C96.4,384.784 103.116,391.5 111.4,391.5L400.6,391.5C408.884,391.5 415.6,384.784 415.6,376.5C415.6,368.216 408.884,361.5 400.6,361.5Z" style="fill:rgb(235,235,235);fill-rule:nonzero;"/>
</svg>
