<?xml version="1.0" encoding="utf-8"?>
<!-- Generator: Adobe Illustrator 22.1.0, SVG Export Plug-In . SVG Version: 6.00 Build 0)  -->
<svg version="1.1" id="Capa_1" xmlns="http://www.w3.org/2000/svg" xmlns:xlink="http://www.w3.org/1999/xlink" x="0px" y="0px"
	 viewBox="0 0 512 512" style="enable-background:new 0 0 512 512;" xml:space="preserve">
<style type="text/css">
	.st0{fill:#FFFFFF;}
	.st1{fill:#222221;}
</style>
<g>
	<g>
		<path class="st0" d="M416.7,0H95.3C42.8,0,0,42.8,0,95.3v321.3C0,469.2,42.8,512,95.3,512h321.3c52.6,0,95.3-42.8,95.3-95.3V95.3
			C512,42.8,469.2,0,416.7,0z M482,416.7c0,36-29.3,65.3-65.3,65.3H95.3c-36,0-65.3-29.3-65.3-65.3V95.3C30,59.3,59.3,30,95.3,30
			h321.3c36,0,65.3,29.3,65.3,65.3V416.7z"/>
		<path class="st1" d="M482,95.3v321.3c0,36-29.3,65.3-65.3,65.3H95.3c-36,0-65.3-29.3-65.3-65.3V95.3C30,59.3,59.3,30,95.3,30
			h321.3C452.7,30,482,59.3,482,95.3z"/>
	</g>
</g>
<g>
	<g>
		<path class="st0" d="M415.6,135.5c0,8.3-6.7,15-15,15H111.4c-8.3,0-15-6.7-15-15s6.7-15,15-15h289.2
			C408.9,120.5,415.6,127.2,415.6,135.5z"/>
	</g>
</g>
<g>
	<g>
		<path class="st0" d="M415.6,256c0,8.3-6.7,15-15,15H111.4c-8.3,0-15-6.7-15-15s6.7-15,15-15h289.2
			C408.9,241,415.6,247.7,415.6,256z"/>
	</g>
</g>
<g>
	<g>
		<path class="st0" d="M415.6,376.5c0,8.3-6.7,15-15,15H111.4c-8.3,0-15-6.7-15-15s6.7-15,15-15h289.2
			C408.9,361.5,415.6,368.2,415.6,376.5z"/>
	</g>
</g>
</svg>
