<?xml version="1.0" encoding="UTF-8" standalone="no"?>
<!DOCTYPE svg PUBLIC "-//W3C//DTD SVG 1.1//EN" "http://www.w3.org/Graphics/SVG/1.1/DTD/svg11.dtd">
<svg width="100%" height="100%" viewBox="0 0 512 512" version="1.1" xmlns="http://www.w3.org/2000/svg" xmlns:xlink="http://www.w3.org/1999/xlink" xml:space="preserve" xmlns:serif="http://www.serif.com/" style="fill-rule:evenodd;clip-rule:evenodd;stroke-linejoin:round;stroke-miterlimit:1.41421;">
    <rect x="0" y="0" width="512" height="512"/>
    <g>
        <g>
            <path d="M416.7,0L95.3,0C42.8,0 0,42.8 0,95.3L0,416.6C0,469.2 42.8,512 95.3,512L416.6,512C469.2,512 511.9,469.2 511.9,416.7L511.9,95.3C512,42.8 469.2,0 416.7,0ZM482,416.7C482,452.7 452.7,482 416.7,482L95.3,482C59.3,482 30,452.7 30,416.7L30,95.3C30,59.3 59.3,30 95.3,30L416.6,30C452.6,30 481.9,59.3 481.9,95.3L481.9,416.7L482,416.7Z" style="fill:white;fill-rule:nonzero;"/>
            <path d="M416.7,30L95.3,30C59.3,30 30,59.3 30,95.3L30,416.6C30,452.6 59.3,481.9 95.3,481.9L416.6,481.9C452.6,481.9 481.9,452.6 481.9,416.6L481.9,95.3C482,59.3 452.7,30 416.7,30ZM400.6,391.5L111.4,391.5C103.1,391.5 96.4,384.8 96.4,376.5C96.4,368.2 103.1,361.5 111.4,361.5L400.6,361.5C408.9,361.5 415.6,368.2 415.6,376.5C415.6,384.8 408.9,391.5 400.6,391.5ZM400.6,271L111.4,271C103.1,271 96.4,264.3 96.4,256C96.4,247.7 103.1,241 111.4,241L400.6,241C408.9,241 415.6,247.7 415.6,256C415.6,264.3 408.9,271 400.6,271ZM400.6,150.5L111.4,150.5C103.1,150.5 96.4,143.8 96.4,135.5C96.4,127.2 103.1,120.5 111.4,120.5L400.6,120.5C408.9,120.5 415.6,127.2 415.6,135.5C415.6,143.8 408.9,150.5 400.6,150.5Z" style="fill-rule:nonzero;"/>
        </g>
        <path d="M415.6,135.5C415.6,143.8 408.9,150.5 400.6,150.5L111.4,150.5C103.1,150.5 96.4,143.8 96.4,135.5C96.4,127.2 103.1,120.5 111.4,120.5L400.6,120.5C408.9,120.5 415.6,127.2 415.6,135.5Z" style="fill:white;fill-rule:nonzero;"/>
        <path d="M415.6,256C415.6,264.3 408.9,271 400.6,271L111.4,271C103.1,271 96.4,264.3 96.4,256C96.4,247.7 103.1,241 111.4,241L400.6,241C408.9,241 415.6,247.7 415.6,256Z" style="fill:white;fill-rule:nonzero;"/>
        <path d="M415.6,376.5C415.6,384.8 408.9,391.5 400.6,391.5L111.4,391.5C103.1,391.5 96.4,384.8 96.4,376.5C96.4,368.2 103.1,361.5 111.4,361.5L400.6,361.5C408.9,361.5 415.6,368.2 415.6,376.5Z" style="fill:white;fill-rule:nonzero;"/>
    </g>
</svg>
